<?xml version="1.0" standalone="no"?>
<!DOCTYPE svg PUBLIC "-//W3C//DTD SVG 20010904//EN"
 "http://www.w3.org/TR/2001/REC-SVG-20010904/DTD/svg10.dtd">
<svg version="1.0" xmlns="http://www.w3.org/2000/svg"
 width="1200.000000pt" height="628.000000pt" viewBox="0 0 1200.000000 628.000000"
 preserveAspectRatio="xMidYMid meet">
<metadata>
Created by potrace 1.15, written by Peter Selinger 2001-2017
</metadata>
<g transform="translate(0.000000,628.000000) scale(0.100000,-0.100000)"
fill="#000000" stroke="none">
<path d="M0 3140 l0 -3140 6000 0 6000 0 0 3140 0 3140 -6000 0 -6000 0 0
-3140z m4675 1729 c6 -4 118 -4 250 0 132 4 254 3 270 -1 17 -4 118 -8 225 -7
423 3 879 -2 884 -9 2 -4 33 -6 68 -5 34 2 124 5 198 8 74 2 191 7 260 11 69
4 130 7 135 6 89 -8 442 -11 540 -5 77 5 144 5 165 0 21 -6 107 -6 215 -1 125
6 251 5 410 -4 127 -7 305 -13 398 -15 92 -1 167 -4 167 -7 0 -20 -85 -229
-93 -227 -5 1 -12 -4 -15 -12 -3 -9 0 -11 8 -6 10 6 11 3 6 -11 -5 -10 -11
-27 -13 -36 -3 -10 -10 -15 -16 -11 -6 3 -7 1 -3 -5 4 -6 4 -22 1 -35 -5 -19
-12 -23 -30 -19 -18 3 -23 0 -21 -14 3 -20 26 -32 26 -13 0 7 2 10 5 7 3 -3
-1 -23 -9 -45 -8 -23 -16 -65 -17 -95 -2 -37 -8 -55 -18 -60 -12 -5 -10 -7 8
-7 16 -1 21 -5 17 -16 -3 -8 -1 -15 5 -15 6 0 7 -6 3 -12 -4 -7 -3 -10 1 -5 5
4 16 0 26 -9 15 -13 16 -20 7 -40 -7 -14 -17 -23 -25 -20 -7 3 -13 1 -13 -4 0
-6 4 -10 9 -10 6 0 2 -24 -9 -52 -31 -90 -32 -91 -42 -76 -6 9 -7 6 -3 -8 6
-23 -12 -74 -26 -74 -5 0 -6 -7 -3 -15 4 -8 1 -15 -5 -15 -6 0 -8 -7 -5 -15 6
-14 -13 -15 -147 -14 -218 1 -235 -4 -31 -11 l172 -5 -20 -40 c-11 -21 -20
-45 -20 -53 0 -7 -5 -10 -12 -6 -6 4 -8 3 -5 -3 8 -12 -23 -103 -35 -103 -4 0
-8 -9 -8 -21 0 -11 -4 -17 -10 -14 -5 3 -7 0 -5 -8 3 -7 -1 -30 -10 -50 -14
-34 -19 -37 -55 -37 -34 0 -40 -3 -40 -21 0 -12 -5 -19 -12 -16 -7 2 -13 10
-13 18 0 22 -13 26 -66 22 -40 -3 -49 0 -49 12 0 9 5 13 10 10 6 -3 10 -1 10
4 0 6 -9 11 -21 11 -16 0 -19 -4 -14 -21 7 -20 4 -20 -64 -17 -39 2 -74 8 -78
12 -4 5 8 7 28 4 27 -3 35 0 32 9 -3 8 -22 13 -49 13 -32 0 -44 4 -44 15 0 9
-9 15 -22 14 -17 -1 -19 -2 -5 -6 9 -2 17 -9 17 -14 0 -5 -91 -9 -219 -9 -202
0 -219 -1 -217 -17 1 -20 -34 -29 -62 -17 -9 4 -20 6 -24 6 -5 -1 -8 3 -8 8 0
6 6 10 13 10 8 0 8 3 -2 9 -8 5 -20 7 -28 4 -7 -3 -13 0 -13 6 0 6 10 11 23
12 12 0 16 3 10 6 -7 2 -13 11 -13 19 0 11 -16 14 -65 14 -51 0 -65 3 -65 15
0 8 -7 15 -15 15 -8 0 -15 5 -15 11 0 5 5 7 10 4 6 -3 10 -1 10 4 0 7 -43 12
-117 13 -65 1 -99 3 -75 5 60 6 52 20 -11 20 l-53 1 15 -34 c9 -18 22 -33 29
-34 6 0 12 -4 12 -10 0 -5 -22 -10 -50 -10 -36 0 -50 -4 -50 -14 0 -9 -11 -13
-34 -11 -19 1 -41 -2 -48 -6 -7 -5 78 -9 190 -9 111 0 202 -3 202 -7 0 -5 -85
-8 -189 -8 -104 1 -187 -3 -185 -7 3 -4 61 -8 130 -8 68 0 124 -3 124 -7 0 -5
-38 -8 -84 -7 l-84 1 28 -27 c75 -70 37 -185 -68 -207 -70 -15 -156 -8 -199
16 -42 24 -81 77 -67 91 14 12 84 20 84 9 0 -5 9 -18 20 -29 26 -26 134 -29
162 -3 60 54 -28 103 -188 103 -50 0 -64 3 -64 15 0 8 9 15 21 15 11 0 18 4
15 9 -3 4 -54 8 -113 7 l-108 -1 -3 -117 c-2 -76 1 -118 8 -118 19 0 10 -16
-10 -17 -11 -1 -20 2 -20 8 0 5 -13 9 -30 9 l-30 0 0 -115 c0 -114 0 -115 -19
-96 -20 20 -26 42 -36 136 -4 35 -2 46 5 35 8 -13 10 -13 10 3 0 9 7 17 15 17
13 0 15 28 15 190 l0 190 -70 0 -70 0 0 35 0 35 153 1 c94 0 144 4 132 9 -19
8 -19 9 3 9 12 1 22 -3 22 -9 0 -5 10 -10 23 -9 21 0 21 1 2 9 -18 8 -18 9 -2
9 10 1 25 -6 33 -14 17 -17 74 -21 74 -5 0 6 -6 10 -12 10 -9 0 -8 4 2 10 19
12 20 12 -128 15 -67 1 -125 5 -129 8 -3 4 54 7 127 7 73 0 130 3 126 7 -4 5
-64 8 -132 9 -69 1 -127 4 -131 8 -3 3 10 6 30 6 21 0 37 4 37 8 0 5 -16 8
-35 7 -20 -1 -38 2 -42 8 -4 6 54 8 164 5 l171 -4 -2 23 c-1 18 -7 23 -31 24
l-30 2 28 4 c15 2 27 9 27 14 0 5 -55 9 -127 8 -71 0 -122 -3 -115 -6 24 -10
11 -19 -28 -19 -45 0 -54 13 -12 19 15 2 3 5 -25 6 -29 0 -53 4 -53 9 0 4 20
6 45 4 27 -3 45 0 45 6 0 6 -24 13 -52 15 -29 2 33 5 137 6 105 2 181 6 170 8
-11 3 -23 10 -27 17 -5 7 -8 6 -8 -4 0 -13 -1 -13 -10 0 -5 8 -10 10 -10 5 0
-12 -305 -13 -317 -2 -3 4 54 8 128 8 74 1 126 3 117 6 -10 2 -18 11 -18 19 0
22 -60 19 -61 -3 -1 -17 -2 -17 -6 0 -3 12 -15 17 -46 18 -108 2 -133 5 -144
19 -6 8 -9 18 -6 23 2 4 -1 14 -7 22 -11 13 -5 15 35 15 42 0 46 2 34 16 -7 9
-15 12 -17 6 -1 -5 -21 -7 -42 -5 l-40 5 0 -71 0 -71 -45 0 -45 0 0 93 0 93
-40 22 -40 21 -11 -20 c-18 -35 -86 -59 -166 -59 l-73 0 0 -75 0 -75 -50 0
-50 0 0 216 0 216 145 -4 c97 -2 148 -7 157 -16 18 -18 34 -15 35 8 1 16 -3
19 -23 16 -14 -3 -22 -1 -19 5 4 5 18 9 33 9 19 0 23 3 14 9 -8 4 -12 17 -10
27 2 10 -2 19 -9 19 -6 0 -15 3 -19 7 -4 4 13 6 36 5 33 -2 44 -7 46 -21 1
-11 9 -23 16 -27 10 -7 10 -9 -2 -9 -11 0 -12 -2 -3 -8 7 -4 11 -18 8 -30 -2
-12 0 -22 6 -22 5 0 9 12 9 28 0 15 4 22 8 17 4 -7 47 -10 107 -9 55 1 138 3
185 3 59 1 80 4 70 11 -13 8 -12 10 3 10 9 0 17 -4 17 -10 0 -5 20 -10 45 -10
25 0 46 5 46 10 1 6 3 15 4 20 1 6 3 15 4 20 2 15 41 12 57 -5 12 -12 12 -15
2 -16 -10 0 -10 -2 0 -6 6 -2 10 -8 7 -13 -8 -13 30 -22 83 -19 26 1 68 1 95
0 47 -1 47 -1 47 -35 0 -30 -4 -35 -30 -41 -16 -3 -61 -3 -99 0 -80 7 -123 -6
-51 -16 l45 -6 -42 -1 c-36 -2 -40 -5 -36 -22 5 -18 15 -20 102 -22 l96 -2
-100 -5 c-116 -7 -105 -21 16 -21 46 0 79 -4 79 -10 0 -5 10 -11 23 -11 l22
-2 -22 -4 c-14 -3 -23 -12 -23 -23 0 -15 9 -20 43 -23 23 -2 -16 -5 -88 -7
-71 -1 -120 -5 -107 -7 12 -2 22 -9 22 -14 0 -6 -4 -8 -8 -5 -4 2 -14 1 -22
-5 -10 -5 24 -9 95 -9 61 0 120 -3 133 -6 13 -4 22 -2 22 5 0 7 -27 11 -77 11
-42 0 -73 3 -70 7 4 3 39 5 77 4 l71 -2 -2 45 c-2 34 -7 46 -18 47 -14 0 -14
1 -1 7 15 7 17 20 19 140 1 31 3 32 41 32 28 0 40 4 41 15 1 8 3 20 4 25 1 6
3 15 4 21 1 8 35 9 114 4 61 -3 316 -6 564 -6 268 0 455 -4 458 -10 7 -10 -67
-14 -187 -10 -48 2 -78 -1 -78 -8 0 -5 17 -12 38 -14 l37 -4 -42 -1 c-32 -2
-43 2 -43 13 0 12 -23 14 -139 13 l-139 -1 9 -23 c8 -22 6 -24 -21 -24 -17 0
-30 4 -30 9 0 5 -8 12 -17 14 -10 3 -3 5 15 6 17 0 32 4 32 9 0 4 -61 9 -135
10 -116 2 -135 1 -135 -13 0 -10 -9 -15 -27 -14 -16 0 -22 3 -15 6 32 13 3 19
-95 20 -69 1 -113 -3 -122 -10 -12 -9 -13 -9 -7 1 4 7 1 12 -8 12 -10 0 -13
-6 -9 -17 4 -11 3 -14 -5 -9 -7 4 -12 2 -12 -3 0 -7 26 -11 66 -11 41 0 63 4
59 10 -4 6 8 10 30 10 22 0 34 -4 30 -10 -3 -5 -1 -10 5 -10 6 0 8 -4 5 -10
-3 -5 -1 -10 6 -10 11 0 54 -41 90 -86 9 -11 14 -30 12 -42 l-3 -22 223 1
c122 0 216 3 210 6 -7 2 -13 11 -13 19 0 10 -14 14 -50 14 -41 0 -50 -3 -51
-17 -1 -17 -2 -17 -6 -1 -3 13 -18 18 -61 21 -32 2 -3 5 63 6 78 2 111 6 95
11 -14 4 -19 8 -12 9 19 2 14 21 -5 22 -12 1 -10 4 7 9 19 6 7 9 -45 11 l-70
3 62 3 c54 3 62 6 60 23 -1 11 -5 20 -9 20 -4 0 -8 7 -8 15 0 11 11 15 41 15
24 0 38 -4 34 -10 -4 -6 10 -10 34 -10 26 0 41 5 41 13 0 8 3 9 8 1 4 -6 14
-14 22 -17 8 -3 -13 -6 -47 -6 -35 -1 -63 -3 -63 -5 0 -26 17 -36 64 -38 l51
-1 -55 -7 c-30 -4 -49 -7 -42 -8 6 -1 12 -9 12 -17 0 -9 10 -15 28 -16 24 -2
23 -2 -8 -9 -34 -7 -34 -7 15 -10 46 -3 47 -4 13 -7 -38 -4 -53 -22 -20 -24
11 -1 9 -4 -8 -9 -15 -5 41 -9 145 -11 l170 -3 -165 -6 c-91 -3 -159 -7 -152
-8 6 -1 12 -9 12 -17 0 -13 21 -15 125 -15 81 0 125 4 125 11 0 5 -4 7 -10 4
-5 -3 -10 -1 -10 4 0 6 7 11 15 11 8 0 15 -7 15 -15 0 -12 20 -15 120 -15 66
0 120 2 120 4 0 27 -16 36 -64 35 -38 0 -46 -3 -31 -9 19 -8 19 -9 -2 -9 -13
-1 -23 4 -23 9 0 6 -17 11 -37 12 -37 1 -37 1 -5 5 17 2 32 9 32 14 0 6 -4 7
-10 4 -5 -3 -7 0 -4 8 4 12 -9 14 -71 13 -42 0 -79 2 -82 7 -2 4 42 6 99 6 57
-1 96 -3 87 -6 -11 -3 -15 -11 -12 -24 5 -16 14 -19 67 -18 33 0 55 3 49 6 -7
2 -13 11 -13 19 0 8 -8 14 -17 15 -15 0 -15 2 2 9 18 8 18 9 -5 10 -18 2 -20
4 -7 7 27 7 20 24 -8 19 -13 -3 -27 0 -30 5 -4 5 9 9 27 9 20 0 28 3 21 8 -7
4 -11 18 -8 30 2 15 0 20 -7 16 -7 -5 -9 -1 -5 9 3 10 2 17 -3 17 -6 0 -10 7
-10 15 0 11 -12 15 -47 15 -31 0 -43 3 -34 9 26 17 -9 22 -154 22 l-145 1 0
99 0 99 135 0 c133 0 135 0 136 -22 l2 -23 4 23 c4 22 7 22 139 22 121 0 134
-2 134 -17 1 -17 1 -17 11 0 6 10 23 17 42 18 18 1 43 5 57 9 14 5 -68 8 -192
9 -163 1 -218 4 -222 14 -3 8 -8 7 -16 -5 -13 -22 -30 -23 -30 -3 0 8 -5 15
-10 15 -6 0 -13 -7 -16 -15 -8 -19 -24 -19 -24 0 0 19 -16 19 -24 0 -3 -8 -10
-15 -16 -15 -5 0 -10 7 -10 15 0 8 -4 15 -9 15 -5 0 -11 -7 -15 -15 -7 -20
-26 -19 -26 1 0 14 -1 14 -16 0 -20 -21 -64 -21 -64 -1 0 8 -4 15 -10 15 -5 0
-10 -7 -10 -15 0 -21 -30 -19 -31 3 -1 16 -2 16 -6 0 -2 -10 -11 -18 -19 -18
-8 0 -14 8 -14 18 -1 16 -1 16 -11 0 -5 -10 -14 -18 -19 -18 -6 0 -10 8 -10
18 -1 16 -1 16 -11 0 -13 -23 -29 -23 -29 -1 0 15 -2 14 -15 -3 -15 -19 -15
-19 -30 0 -13 17 -15 18 -15 3 0 -13 -9 -17 -36 -17 -21 0 -33 4 -29 10 3 6 1
10 -4 10 -6 0 -11 -4 -11 -10 0 -15 -40 -12 -41 3 0 10 -2 10 -6 0 -2 -7 -13
-13 -24 -13 -10 0 -19 6 -20 13 0 10 -2 10 -6 0 -7 -20 -43 -16 -44 5 -1 16
-2 16 -6 0 -5 -21 -29 -24 -37 -5 -5 10 -7 10 -12 0 -3 -7 -21 -13 -40 -13
-20 0 -34 5 -35 13 0 10 -2 10 -6 0 -6 -15 -33 -17 -33 -3 0 6 -8 5 -20 -2
-17 -11 -22 -10 -30 2 -6 10 -10 11 -10 3 0 -7 -7 -13 -15 -13 -8 0 -15 6 -15
13 0 8 -4 7 -10 -3 -9 -13 -12 -12 -25 4 -13 17 -15 18 -15 3 0 -9 -7 -17 -15
-17 -8 0 -15 8 -15 18 -1 16 -1 16 -11 0 -6 -12 -22 -18 -44 -18 -26 0 -35 4
-36 18 -1 16 -2 16 -6 0 -5 -20 -33 -25 -33 -6 0 9 -3 9 -12 0 -18 -18 -38
-15 -38 6 -1 16 -1 16 -11 0 -5 -10 -17 -18 -24 -18 -8 0 -15 8 -15 18 -1 16
-1 16 -11 0 -5 -10 -17 -18 -24 -18 -8 0 -16 8 -16 18 -1 16 -2 16 -6 0 -3
-13 -15 -18 -39 -18 -25 0 -34 4 -35 18 -1 16 -2 16 -6 0 -2 -10 -13 -18 -24
-18 -11 0 -19 7 -20 18 -1 16 -2 16 -6 0 -2 -10 -11 -18 -20 -18 -9 0 -13 6
-9 15 3 8 1 15 -3 15 -5 0 -11 -7 -15 -15 -8 -21 -26 -19 -26 3 -1 16 -1 16
-11 0 -12 -22 -29 -23 -29 -3 0 8 -5 15 -10 15 -6 0 -9 -5 -8 -11 2 -6 -3 -14
-9 -16 -8 -3 -13 3 -13 14 0 11 -3 14 -8 7 -4 -6 -22 -15 -39 -19 -26 -5 -33
-3 -33 9 0 9 -4 16 -10 16 -5 0 -10 -7 -10 -15 0 -20 -17 -19 -30 3 -8 12 -13
13 -16 5 -3 -7 -12 -13 -19 -13 -7 0 -16 6 -19 13 -5 10 -7 10 -12 0 -8 -18
-34 -16 -34 2 0 8 -4 15 -10 15 -5 0 -10 -7 -10 -15 0 -8 -7 -15 -15 -15 -8 0
-15 7 -15 15 0 8 -4 15 -10 15 -5 0 -10 -7 -10 -15 0 -13 -25 -15 -175 -14
-145 0 -175 3 -175 15 0 17 -16 19 -24 2 -3 -10 -8 -9 -18 3 -10 13 -17 14
-31 5 -14 -8 -20 -8 -27 4 -8 12 -10 12 -16 -3 -8 -22 -34 -22 -34 1 -1 16 -1
16 -14 0 -7 -10 -17 -18 -21 -18 -4 0 -14 8 -21 18 -13 16 -13 16 -14 0 0 -13
-8 -18 -30 -18 -22 0 -30 5 -30 18 -1 16 -1 16 -11 0 -12 -22 -44 -24 -35 -3
3 8 1 15 -3 15 -5 0 -12 -8 -16 -17 -6 -17 -7 -17 -21 1 -8 11 -14 14 -14 8 0
-16 -30 -15 -31 1 0 10 -2 10 -6 0 -2 -7 -11 -13 -18 -13 -7 0 -16 6 -18 13
-4 9 -8 8 -16 -3 -10 -13 -12 -13 -22 0 -8 11 -12 12 -16 3 -2 -7 -20 -13 -39
-13 -25 0 -34 4 -34 17 0 15 -2 14 -15 -3 -14 -18 -16 -18 -29 -1 -12 16 -14
16 -20 1 -7 -17 -33 -13 -29 5 2 6 -2 11 -7 11 -6 0 -10 -4 -10 -10 0 -14 -37
-12 -44 3 -5 10 -7 10 -12 0 -9 -19 -34 -16 -34 5 -1 16 -1 16 -11 0 -6 -11
-22 -18 -39 -18 -22 0 -30 5 -30 18 -1 16 -1 16 -11 0 -13 -23 -29 -23 -29 -1
0 15 -2 15 -19 -1 -18 -17 -20 -17 -30 1 -6 10 -11 12 -11 6 0 -7 -6 -13 -14
-13 -8 0 -17 6 -19 13 -4 9 -8 8 -16 -3 -9 -12 -12 -13 -20 -1 -6 9 -11 10
-15 2 -11 -17 -36 -13 -36 7 -1 16 -1 16 -11 0 -12 -22 -57 -24 -65 -3 -6 14
-8 13 -21 -2 -13 -17 -15 -17 -25 -1 -11 15 -13 15 -25 0 -12 -16 -14 -16 -28
2 -8 11 -15 14 -15 8 0 -7 -9 -12 -20 -12 -11 0 -20 5 -20 10 0 6 -5 10 -11
10 -5 0 -7 -4 -4 -10 3 -5 -3 -10 -14 -10 -13 0 -21 7 -21 18 -1 16 -1 16 -14
0 -7 -10 -25 -18 -40 -18 -18 0 -26 5 -26 18 -1 16 -1 16 -14 0 -16 -22 -26
-23 -26 -3 0 8 -4 15 -10 15 -5 0 -10 -4 -10 -10 0 -5 -7 -10 -15 -10 -8 0
-15 5 -15 11 0 8 -5 7 -15 -1 -13 -11 -18 -10 -30 6 -13 17 -14 18 -15 2 0
-10 -4 -18 -10 -18 -5 0 -10 8 -10 18 -1 16 -1 16 -14 0 -16 -22 -36 -23 -36
-3 0 8 -4 15 -10 15 -5 0 -10 -7 -10 -15 0 -11 -11 -15 -40 -15 -30 0 -40 4
-40 16 0 8 -5 12 -10 9 -6 -4 -8 -11 -5 -16 10 -16 -13 -10 -31 8 -13 13 -19
14 -22 5 -5 -17 -32 -15 -32 3 0 8 -7 15 -15 15 -8 0 -15 -7 -15 -15 0 -8 -4
-15 -10 -15 -5 0 -10 7 -10 15 0 8 -4 15 -10 15 -5 0 -10 -7 -10 -15 0 -8 -9
-15 -20 -15 -13 0 -18 5 -14 15 4 10 0 15 -11 15 -11 0 -15 -5 -11 -15 5 -13
0 -15 -27 -11 -17 3 -111 8 -207 11 -96 3 -195 7 -220 10 -25 2 -120 7 -212
11 -137 5 -166 9 -161 20 3 8 0 14 -6 14 -6 0 -11 -7 -11 -15 0 -13 -4 -14
-20 -5 -11 6 -18 16 -15 23 4 7 1 5 -7 -4 -9 -10 -34 -16 -80 -17 -57 -2 -67
0 -62 13 3 8 1 15 -5 15 -6 0 -11 -4 -11 -10 0 -5 -7 -10 -15 -10 -8 0 -15 8
-15 19 0 27 23 29 410 29 489 1 807 6 815 13 9 10 428 8 440 -2z m-1697 -25
c12 -4 22 -13 22 -20 0 -20 -27 -17 -39 4 -10 15 -10 16 -11 0 0 -11 -10 -18
-27 -20 -16 -2 23 -7 85 -12 74 -5 112 -12 112 -19 0 -9 2 -9 8 0 5 8 43 9
147 2 77 -4 208 -11 290 -14 83 -4 157 -8 165 -10 8 -3 85 -6 170 -8 111 -3
155 -8 158 -17 4 -10 6 -10 12 0 10 17 290 3 290 -14 0 -7 3 -7 8 1 10 16 283
5 281 -11 -4 -30 2 -129 7 -124 3 3 6 34 7 69 l2 62 135 -2 c135 -2 155 -5
145 -21 -3 -5 -1 -11 5 -15 5 -3 10 3 10 15 0 12 3 19 8 17 4 -3 129 -8 277
-12 149 -4 274 -10 278 -12 5 -3 8 -26 7 -52 -5 -88 -16 -81 138 -81 75 0 144
-5 152 -10 10 -7 -32 -10 -130 -11 -80 -1 -151 -1 -157 0 -21 3 -3 -27 20 -33
12 -3 50 -6 84 -6 34 0 65 -4 68 -10 3 -5 0 -10 -7 -10 -9 0 -10 -3 -2 -8 6
-4 10 -15 8 -24 -1 -10 3 -18 9 -18 7 0 6 -5 -3 -11 -11 -8 -12 -12 -2 -16 6
-2 10 -9 6 -14 -3 -5 0 -9 6 -9 7 0 21 -11 32 -25 15 -19 28 -25 56 -24 l37 2
-40 7 -40 7 47 2 c40 1 45 -1 41 -17 -3 -13 -13 -17 -34 -16 -16 1 -29 -2 -29
-6 0 -5 19 -10 43 -12 l42 -3 -32 -15 c-33 -15 -33 -15 -33 -88 0 -82 -14
-124 -56 -166 -42 -42 -86 -57 -167 -57 -118 -1 -127 0 -127 16 0 10 -10 15
-32 14 -18 -1 -25 -3 -15 -6 9 -2 17 -8 17 -13 0 -5 -67 -7 -150 -6 -82 1
-150 -1 -150 -6 0 -4 86 -8 191 -8 104 0 188 -4 185 -8 -2 -4 -89 -7 -191 -6
-155 2 -186 1 -181 -11 2 -8 0 -16 -7 -19 -7 -2 9 -5 36 -5 26 -1 47 -5 47
-10 0 -5 -16 -8 -34 -6 -19 1 -41 -2 -48 -6 -7 -5 34 -9 95 -9 59 0 107 -4
107 -8 0 -5 -43 -8 -95 -8 -68 1 -95 -2 -95 -11 0 -9 22 -10 85 -6 50 3 85 2
85 -3 0 -5 -27 -9 -60 -9 -33 1 -60 -2 -60 -7 0 -4 63 -8 140 -8 77 0 140 -4
140 -8 0 -5 -59 -8 -131 -8 -72 1 -136 -2 -142 -6 -7 -4 43 -8 111 -8 67 0
122 -4 122 -8 0 -4 -50 -8 -111 -7 -61 0 -113 -3 -115 -7 -3 -5 51 -8 120 -8
69 0 126 -4 126 -8 0 -4 -58 -7 -130 -7 -71 0 -130 -3 -130 -7 0 -5 41 -8 90
-8 50 0 90 -4 90 -8 0 -4 -22 -8 -50 -7 -27 1 -50 -3 -50 -7 0 -4 25 -8 55 -8
41 0 55 4 55 14 0 20 170 12 217 -11 161 -76 145 -353 -24 -403 -27 -8 -44
-20 -48 -34 -6 -21 -6 -21 -15 -1 -5 12 -9 14 -9 6 -1 -11 -4 -11 -14 3 -10
14 -23 17 -60 13 -26 -2 -47 0 -47 5 0 4 -18 24 -39 44 -37 33 -61 80 -76 148
-4 21 -9 26 -15 17 -4 -7 -14 -11 -21 -9 -8 3 -38 -8 -68 -23 -46 -25 -65 -29
-132 -29 l-79 0 3 -75 2 -75 -50 0 -50 0 3 128 4 129 -56 -4 c-44 -2 -56 0
-56 12 0 8 6 15 13 16 10 0 10 2 0 6 -18 7 -16 21 5 26 13 4 11 5 -5 6 -14 1
-23 -5 -23 -14 0 -8 -5 -15 -11 -15 -6 0 -9 7 -5 15 3 8 1 15 -4 15 -5 0 -11
-8 -13 -17 -3 -10 -5 -3 -6 15 -1 30 -3 32 -38 31 -21 -1 -30 -3 -20 -6 9 -2
17 -9 17 -14 0 -5 -8 -10 -17 -10 -17 -1 -17 -2 0 -6 9 -2 17 -9 17 -14 0 -5
-8 -10 -17 -10 -17 -1 -17 -2 0 -6 9 -2 17 -9 17 -15 0 -5 -7 -8 -15 -4 -8 3
-15 1 -15 -4 0 -6 -9 -6 -22 -1 -38 13 -181 -1 -175 -18 1 -3 -2 -6 -8 -6 -5
0 -9 7 -7 15 3 16 -43 20 -66 6 -7 -4 -12 -2 -12 6 0 9 -3 9 -10 -2 -5 -8 -10
-10 -10 -5 0 6 -56 10 -150 9 -118 -1 -150 2 -150 12 0 9 10 12 33 10 77 -10
373 -9 363 1 -4 4 -75 8 -159 9 -239 3 -257 3 -257 13 0 5 17 8 38 7 20 -1 51
1 67 5 24 5 20 7 -22 8 -32 1 -53 6 -53 12 0 6 7 9 15 5 8 -3 15 -1 15 4 0 6
-7 10 -15 10 -8 0 -15 4 -15 9 0 4 23 7 50 5 28 -1 50 2 50 7 0 5 -28 9 -62
10 -136 2 -210 1 -215 -5 -4 -3 15 -6 40 -6 26 0 47 -4 47 -9 0 -5 -18 -8 -40
-7 -21 2 -45 -1 -52 -5 -7 -5 19 -8 62 -8 41 1 67 3 58 6 -32 8 -19 24 17 21
36 -2 49 -17 18 -19 -17 -1 -17 -2 0 -6 21 -5 23 -23 2 -23 -8 0 -15 -9 -15
-20 0 -11 5 -20 10 -20 6 0 10 -7 10 -15 0 -8 -5 -15 -11 -15 -5 0 -7 6 -3 13
5 7 1 6 -10 -3 -16 -13 -18 -12 -14 9 3 22 0 24 -54 25 -31 1 -65 -2 -75 -6
-10 -3 12 -7 50 -7 53 -1 67 -4 67 -16 0 -8 -4 -15 -10 -15 -5 0 -10 6 -10 13
0 9 -3 8 -9 -2 -6 -9 -14 -10 -27 -4 -11 5 -32 8 -49 5 -34 -5 -38 -5 -200 -1
-117 3 -120 3 -117 -18 3 -20 -1 -21 -93 -22 -93 -1 -95 -1 -95 22 0 20 -5 23
-40 22 -27 -1 -40 3 -40 12 0 7 8 13 18 14 12 0 10 3 -8 11 l-25 11 30 7 30 8
-31 1 c-25 1 -33 6 -36 26 l-5 25 170 0 c94 0 168 2 165 5 -3 3 -83 6 -178 7
-164 2 -173 3 -180 22 -20 50 -23 63 -21 99 2 33 0 37 -21 37 -19 0 -27 9 -38
38 -8 20 -13 40 -12 45 1 4 -2 7 -7 7 -14 0 -20 37 -7 50 8 8 7 10 -5 5 -23
-9 -99 162 -78 177 12 8 12 9 -1 5 -8 -2 -20 5 -26 16 -9 16 -7 24 10 41 12
12 25 20 30 18 5 -2 6 4 3 13 -4 8 -3 15 2 15 5 0 8 29 7 65 l-1 64 40 4 40 4
-45 2 -45 2 -78 197 c-102 258 -98 242 -51 242 22 0 49 -3 62 -6z m8627 -134
c3 6 15 6 29 0 13 -5 27 -6 31 -2 4 4 13 -2 21 -12 8 -11 14 -14 14 -7 0 7 4
10 9 6 5 -3 12 -1 16 5 6 9 231 7 241 -3 3 -2 -35 -8 -83 -11 -48 -4 -144 -14
-213 -22 -69 -7 -128 -14 -132 -14 -5 0 -8 18 -8 40 l0 40 35 -14 c19 -8 37
-11 40 -6z m-4367 -133 c4 -111 5 -110 -146 -105 -85 3 -126 8 -131 17 -7 10
-302 27 -555 31 -11 0 -16 3 -10 8 5 4 134 5 287 2 l277 -5 0 68 0 68 138 -3
137 -3 3 -78z m224 33 c6 0 5 -6 -2 -15 -12 -14 -9 -15 23 -12 20 2 39 6 42 9
3 3 23 2 44 -2 20 -4 48 -2 62 3 47 19 59 16 59 -15 0 -24 2 -27 14 -16 8 7
12 16 9 21 -2 4 5 7 15 7 14 0 21 -8 24 -30 l4 -29 -54 1 c-34 1 -56 7 -59 15
-3 7 -10 10 -15 7 -6 -4 -5 -10 3 -15 10 -6 8 -9 -8 -9 -16 0 -23 6 -23 20 0
11 -5 20 -11 20 -6 0 -9 -9 -6 -20 3 -13 0 -20 -9 -20 -8 0 -15 10 -15 23 -2
22 -2 22 -6 0 -2 -12 -12 -22 -21 -22 -9 0 -36 -2 -60 -4 -49 -5 -72 10 -72
47 0 27 20 48 38 41 8 -3 18 -5 24 -5z m-1592 -1115 l0 -215 -45 0 -45 0 0
215 0 215 45 0 45 0 0 -215z m284 52 l91 -158 3 161 2 160 40 0 40 0 0 -215 0
-216 -56 3 -57 3 -87 153 c-48 84 -89 155 -91 157 -2 2 -2 -68 -1 -156 l4
-159 -46 0 -46 0 0 215 0 216 56 -3 57 -3 91 -158z m-2173 -269 l2 -23 4 23
c5 23 22 31 24 10 0 -9 2 -9 6 1 5 11 7 11 14 0 8 -12 11 -11 19 1 8 12 10 10
10 -9 0 -16 -4 -22 -15 -17 -12 4 -15 -5 -16 -47 0 -29 -3 -65 -5 -80 -3 -16
0 -35 7 -43 9 -11 8 -14 -5 -14 -9 0 -15 -3 -15 -7 4 -26 -4 -33 -41 -33 -22
0 -40 5 -40 11 0 16 -23 36 -37 32 -6 -2 -15 1 -19 8 -5 9 -2 10 9 6 24 -9 25
-5 42 116 7 46 18 60 28 35 3 -7 6 2 6 20 1 36 20 45 22 10z m220 10 c0 -9 2
-9 6 1 5 11 7 11 14 0 8 -12 11 -11 19 1 8 12 10 8 11 -15 l2 -30 4 28 c5 33
22 36 24 5 l2 -23 4 23 c2 12 8 22 13 22 5 0 7 -35 3 -80 -4 -60 -3 -80 6 -80
8 0 6 -7 -5 -17 -16 -17 -16 -18 -1 -21 10 -2 15 -8 11 -13 -3 -5 -10 -7 -15
-4 -5 4 -9 -5 -9 -19 0 -24 -3 -26 -40 -24 -36 1 -45 8 -41 31 1 5 -3 6 -9 2
-8 -5 -12 3 -12 25 0 3 3 35 6 71 6 56 5 66 -8 66 -9 0 -16 -5 -16 -11 0 -7
-9 -19 -20 -29 -20 -16 -20 -16 -20 24 0 24 4 38 10 34 6 -3 10 1 10 9 0 9 7
16 15 16 8 0 15 5 15 10 0 15 20 12 21 -2z m483 -60 c-4 -5 10 -8 35 -5 33 3
41 1 41 -12 0 -14 2 -14 11 -1 8 11 12 12 16 3 2 -7 11 -13 18 -13 9 0 13 -10
12 -27 -2 -25 -6 -28 -42 -29 -22 -1 -52 -2 -67 -3 -16 -1 -28 -5 -28 -11 0
-6 40 -10 100 -10 l100 0 0 -44 0 -45 -97 -3 c-54 -2 -100 -2 -103 0 -3 2 -6
61 -7 130 -2 91 0 120 7 104 6 -13 7 -28 4 -34z m2079 30 c23 0 26 -5 32 -57
9 -78 4 -132 -14 -158 -14 -20 -25 -22 -103 -23 l-88 0 0 46 c0 34 3 45 13 41
8 -3 20 -1 28 3 11 7 10 10 -4 16 -9 3 -17 15 -17 26 0 10 -4 16 -10 13 -5 -3
-10 -1 -10 4 0 6 18 11 40 11 22 0 40 -4 40 -10 0 -5 9 -10 20 -10 11 0 20 -7
20 -16 0 -8 5 -12 11 -9 6 4 8 32 4 78 -4 47 -3 67 3 58 5 -7 21 -13 35 -13z
m377 12 c0 -5 5 -10 11 -10 5 0 7 5 4 10 -3 6 -2 10 3 10 9 0 41 -107 45 -147
1 -24 7 -26 75 -23 l42 2 0 -46 0 -46 -66 0 c-38 0 -63 4 -59 9 3 6 -4 15 -15
21 -11 6 -20 8 -20 5 0 -3 -9 4 -21 16 -18 18 -20 31 -18 115 2 52 6 94 11 94
4 0 8 -4 8 -10z m600 -11 c0 11 3 11 15 1 12 -10 15 -10 15 1 1 8 8 1 17 -16
19 -35 31 -45 50 -38 10 4 13 -7 13 -41 0 -30 -4 -46 -12 -47 -10 0 -10 -2 0
-6 7 -3 12 -23 12 -49 l0 -44 -37 0 c-48 1 -66 24 -93 121 -22 81 -27 125 -10
99 8 -12 10 -10 10 10 0 20 2 22 10 10 8 -12 10 -12 10 -1z m-2180 -54 c0 -8
7 -15 15 -15 12 0 15 -14 15 -66 0 -76 -13 -93 -67 -94 l-33 0 0 95 0 95 35 0
c24 0 35 -5 35 -15z m1430 -61 c7 -30 14 -71 16 -91 3 -20 7 -39 9 -43 3 -4
-9 -10 -25 -14 -20 -3 -30 -11 -30 -23 0 -11 3 -14 8 -7 4 6 26 13 50 16 l42
4 0 -51 c0 -43 5 -55 33 -85 32 -33 33 -36 26 -88 -4 -30 -15 -62 -23 -71 -9
-10 -13 -21 -9 -24 3 -4 -5 -7 -18 -7 -24 -1 -24 -1 4 -16 15 -8 27 -16 27
-17 0 -1 -16 -2 -34 -3 -20 0 -34 4 -33 10 1 7 -21 12 -57 13 -32 1 -61 4 -63
7 -7 7 -5 224 2 247 7 20 45 27 45 9 0 -6 15 -10 33 -8 18 1 38 -2 45 -6 9 -5
12 4 12 31 0 41 -1 41 -80 32 -8 -1 -40 -1 -70 0 l-55 3 40 13 c22 6 42 8 43
4 2 -5 9 -9 15 -9 5 0 8 3 4 6 -3 4 0 13 8 21 10 10 13 23 8 41 -5 15 -8 44
-8 65 0 20 -3 37 -7 37 -9 0 -11 54 -2 63 15 15 34 -10 44 -59z m-1689 -15 c4
-7 53 -15 117 -18 7 -1 12 -16 12 -41 l0 -40 -70 0 c-57 0 -74 4 -90 20 -12
12 -25 18 -30 15 -11 -7 -12 -2 -12 45 0 17 1 31 1 33 2 7 66 -6 72 -14z
m-177 -139 c20 0 22 -6 23 -55 1 -30 -2 -55 -6 -55 -4 0 -7 19 -8 41 -1 23 -3
43 -5 44 -2 2 -21 5 -44 8 l-40 4 -3 -38 c-3 -52 23 -99 53 -99 22 0 30 -19
14 -35 -16 -16 28 -149 52 -157 5 -1 -15 -3 -45 -3 -30 0 -56 3 -56 7 -6 26
-1 33 22 38 23 4 25 8 18 28 -8 21 -14 23 -66 20 l-57 -3 -11 -39 c-13 -47
-40 -69 -55 -46 -5 8 -10 10 -10 4 0 -19 -50 -14 -50 5 0 10 -3 12 -8 5 -10
-14 -111 -18 -145 -5 -18 7 -27 7 -27 0 0 -13 -73 -8 -82 5 -5 7 -8 7 -8 -1 0
-7 -4 -13 -10 -13 -5 0 -10 6 -10 14 0 16 29 25 65 21 29 -3 29 -5 10 31 -31
60 -11 134 45 168 30 17 64 19 148 10 l52 -7 0 -68 c0 -62 -2 -69 -20 -69 -16
0 -20 -7 -20 -32 0 -33 0 -33 50 -33 l50 0 39 98 c29 72 36 97 25 97 -22 0
-17 41 6 47 35 9 20 38 -23 41 -26 2 -37 8 -37 19 0 14 11 15 77 9 42 -3 86
-6 97 -6z m3256 -20 c0 -15 -7 -20 -25 -20 -16 0 -25 -6 -25 -16 0 -12 7 -15
24 -12 20 4 23 1 24 -24 0 -15 -3 -28 -8 -28 -5 0 -2 -13 6 -30 20 -39 20
-104 1 -134 -14 -21 -14 -26 -2 -36 8 -7 15 -18 15 -25 0 -8 8 -16 18 -18 9
-3 -12 -5 -48 -5 -36 0 -55 3 -43 6 17 5 20 11 13 22 -5 8 -10 10 -10 5 0 -6
-17 -11 -37 -12 -21 -1 -50 -5 -65 -8 -40 -10 -118 3 -118 20 0 9 14 15 43 17
l42 3 -3 110 c-1 61 2 116 7 124 12 18 102 16 113 -2 4 -7 8 1 8 20 0 29 -2
31 -34 29 -18 -2 -38 -6 -44 -10 -15 -9 -42 4 -42 20 0 9 19 14 63 17 34 2 77
4 95 5 26 2 32 -2 32 -18z m-4786 -204 c8 3 17 0 21 -6 4 -7 0 -10 -11 -8 -14
2 -20 -4 -22 -26 -2 -16 1 -33 7 -39 13 -13 91 -16 91 -4 0 11 55 8 66 -3 16
-16 26 1 74 118 23 56 46 102 51 102 5 0 9 -3 9 -8 0 -4 20 -6 45 -4 36 3 45
1 45 -12 0 -9 7 -16 16 -16 13 0 15 -10 12 -52 -3 -49 -5 -53 -31 -56 -15 -2
-27 -5 -27 -7 0 -12 25 -55 32 -55 4 0 8 -9 8 -19 0 -25 -28 -27 -417 -30
-309 -2 -313 -1 -313 19 0 15 7 20 26 20 19 0 25 -4 20 -15 -3 -8 -1 -15 4
-15 6 0 10 7 10 15 0 12 18 15 108 14 59 -1 97 -4 84 -8 -13 -3 -50 -6 -83 -5
-32 0 -59 -4 -59 -8 0 -4 44 -8 99 -8 l98 0 7 38 c3 20 7 78 8 127 2 89 2 90
5 18 3 -56 7 -71 17 -67z m676 84 c0 -33 4 -50 13 -50 8 0 9 -3 1 -8 -16 -10
-26 -60 -19 -92 6 -27 8 -28 58 -25 29 1 61 6 72 9 27 9 54 -9 38 -25 -11 -11
-99 -15 -213 -10 -25 2 -54 0 -66 -2 -18 -4 -21 -1 -18 20 3 30 15 43 22 24 4
-11 6 -11 13 0 8 12 10 12 18 0 7 -11 10 -11 15 0 5 11 7 11 12 2 8 -18 34 9
34 36 0 19 -6 21 -60 21 -36 0 -60 4 -60 11 0 5 5 7 10 4 6 -4 10 6 10 24 0
16 3 36 6 45 4 11 0 16 -12 17 -17 1 -17 2 -1 6 9 2 17 11 17 19 0 10 10 14
35 12 19 -1 37 1 41 5 21 21 34 5 34 -43z m1596 -67 c27 -64 51 -120 52 -125
2 -4 -1 -8 -6 -8 -6 0 -18 20 -28 45 l-17 45 -54 0 -54 0 -20 -45 c-11 -25
-24 -45 -30 -45 -5 0 -3 14 5 33 7 17 31 74 52 124 22 51 42 93 45 93 3 0 28
-53 55 -117z m258 104 c22 -16 24 -63 4 -84 -13 -13 -12 -18 13 -43 35 -35 36
-54 4 -85 -19 -20 -34 -25 -75 -25 l-50 0 0 125 0 125 43 0 c24 0 51 -6 61
-13z m246 -8 c0 -5 22 -59 49 -119 43 -97 47 -110 30 -110 -12 0 -19 7 -19 20
0 10 -5 31 -12 45 -10 22 -17 25 -65 25 l-54 0 -19 -45 c-11 -25 -24 -45 -29
-45 -5 0 9 42 31 93 22 50 46 107 54 125 12 30 34 37 34 11z m240 -16 c0 -7 6
-13 13 -13 6 0 18 -12 25 -27 7 -16 34 -52 61 -82 l49 -54 0 94 c0 120 0 119
12 119 6 0 10 -48 10 -125 0 -69 -3 -125 -7 -125 -12 1 -43 26 -38 32 2 2 -16
24 -40 48 -41 40 -45 42 -45 21 0 -21 -4 -23 -35 -19 -33 4 -35 2 -35 -27 0
-30 1 -30 46 -27 40 4 45 2 42 -14 -4 -23 -63 -35 -90 -19 -16 8 -18 26 -18
131 l0 122 25 -11 c14 -7 25 -18 25 -24z m838 21 c26 -4 42 -11 42 -20 0 -8 9
-14 20 -14 11 0 20 -6 21 -12 1 -18 7 -60 11 -78 1 -8 10 -18 18 -22 8 -4 -6
-7 -32 -7 -42 -1 -52 -6 -90 -43 -29 -29 -53 -44 -73 -45 -16 -1 -59 -6 -95
-10 l-65 -8 -1 27 c-1 27 0 28 39 21 l40 -6 -23 31 c-15 20 -33 32 -47 32 -13
0 -23 5 -23 10 0 15 0 17 -11 52 -5 18 -12 45 -14 61 -5 26 -3 27 35 27 29 0
40 -4 40 -15 0 -19 16 -20 27 -2 22 37 55 40 181 21z m232 -42 c7 2 14 -7 16
-20 3 -18 90 -132 100 -132 2 0 1 45 0 100 -4 95 5 131 24 100 4 -7 12 -10 18
-6 17 10 30 -101 16 -138 -9 -23 -22 -20 -27 7 -2 12 -5 -9 -6 -48 l-1 -70
-56 60 c-30 33 -52 54 -49 48 4 -9 -3 -13 -24 -13 -29 0 -31 2 -31 38 0 20 -9
51 -20 67 l-20 30 0 -112 c0 -69 -4 -113 -10 -113 -6 0 -10 51 -10 132 l0 132
33 -33 c19 -17 40 -31 47 -29z m390 33 c0 -18 5 -25 19 -25 11 0 21 8 24 18 2
9 4 -18 5 -60 l2 -78 -75 0 -75 0 0 -30 c0 -29 1 -30 50 -30 36 0 50 -4 50
-14 0 -11 -11 -13 -45 -10 -24 2 -47 -1 -50 -6 -3 -6 -30 -10 -59 -10 -45 0
-54 3 -59 20 -5 18 0 20 44 20 48 0 49 1 49 30 0 20 -5 30 -15 30 -12 0 -15
16 -15 80 0 66 2 78 15 74 8 -4 15 -1 15 5 0 7 23 11 60 11 57 0 60 -1 60 -25z
m-3146 -384 c27 -28 31 -38 31 -86 0 -48 -4 -58 -31 -86 -93 -93 -242 0 -202
125 28 88 135 113 202 47z m2350 -9 c11 -26 31 -72 44 -102 l24 -55 49 104
c27 57 51 102 54 100 6 -7 44 -243 39 -248 -9 -10 -16 13 -29 99 -8 51 -16 94
-18 96 -2 2 -23 -36 -46 -86 -24 -49 -47 -90 -51 -90 -5 0 -25 41 -46 90 -20
50 -38 89 -40 87 -2 -2 -10 -45 -18 -96 -15 -89 -21 -110 -30 -100 -6 6 36
249 43 249 3 0 15 -21 25 -48z m56 -702 l0 -140 -1345 0 -1345 0 0 140 0 140
1345 0 1345 0 0 -140z m-6650 -959 c0 -121 4 -231 9 -245 8 -18 19 -25 43 -28
l33 -3 3 -82 3 -83 -206 0 -206 0 3 83 3 82 30 3 c48 5 55 24 55 143 l0 108
-47 3 -48 3 -3 73 c-3 67 -1 72 18 72 42 0 91 29 103 60 l11 30 98 0 98 0 0
-219z m568 189 c66 -29 135 -103 157 -170 22 -65 22 -190 0 -255 -57 -169
-241 -258 -446 -214 -37 8 -64 22 -93 49 -38 36 -41 43 -41 90 0 44 4 55 28
75 39 35 88 41 134 19 32 -16 38 -24 41 -55 2 -30 -2 -41 -23 -57 l-26 -20 31
-7 c90 -20 170 59 170 167 l0 27 -37 -16 c-28 -11 -61 -14 -124 -11 -71 3 -93
9 -132 31 -125 73 -114 265 18 335 94 49 246 55 343 12z m522 -90 c25 -25 25
-40 1 -40 -11 0 -23 5 -26 10 -9 14 -58 13 -53 -2 2 -6 22 -17 44 -25 37 -13
64 -36 64 -55 0 -23 -51 -58 -85 -58 -37 0 -75 28 -75 55 0 8 9 15 20 15 11 0
20 -4 20 -10 0 -14 37 -31 54 -24 28 11 17 33 -22 44 -68 18 -87 62 -43 97 25
19 79 15 101 -7z m713 -12 c28 -38 26 -102 -3 -133 -78 -83 -170 62 -94 147
25 27 72 20 97 -14z m235 14 c13 -13 18 -33 17 -82 0 -59 -2 -65 -27 -79 -52
-29 -116 22 -93 75 4 11 7 29 6 42 -5 52 60 81 97 44z m-615 -70 c42 -38 4
-110 -53 -99 -29 6 -30 6 -30 -33 0 -33 -3 -40 -20 -40 -19 0 -20 7 -20 94 l0
94 53 0 c33 0 58 -6 70 -16z m8497 -112 c24 -24 25 -39 6 -66 -13 -16 -13 -22
0 -41 14 -22 13 -23 -10 -23 -16 0 -27 7 -31 20 -3 11 -15 20 -26 20 -12 0
-19 -7 -19 -20 0 -13 -7 -20 -20 -20 -18 0 -20 7 -20 75 l0 75 50 0 c37 0 55
-5 70 -20z"/>
<path d="M5980 4250 l0 -70 65 0 c75 0 105 20 105 69 0 46 -39 71 -111 71
l-59 0 0 -70z"/>
<path d="M7254 4311 c-12 -12 -2 -60 14 -64 16 -4 16 -5 -1 -6 -16 -1 -18 -9
-15 -71 l3 -70 80 1 c65 2 73 3 40 9 l-40 7 38 2 c36 1 38 3 35 29 -2 15 -12
32 -23 39 -18 11 -18 12 -2 13 19 0 20 4 11 37 -4 15 -15 23 -38 26 l-31 4 33
1 c26 2 33 6 30 20 -2 13 -17 18 -66 22 -35 3 -65 3 -68 1z"/>
<path d="M7560 4200 c10 -6 11 -10 3 -10 -7 0 -13 -4 -13 -10 0 -6 50 -11 128
-11 70 -1 116 -4 102 -6 -13 -3 -30 -12 -36 -21 -7 -10 -16 -13 -20 -9 -5 4
-2 12 6 17 10 7 -18 10 -81 10 -88 0 -97 -2 -102 -20 -3 -10 0 -21 7 -24 7 -3
7 -5 -1 -5 -7 -1 -13 -10 -13 -21 0 -18 7 -20 71 -20 44 0 68 -4 64 -10 -3 -5
-1 -10 4 -10 6 0 11 7 11 15 0 9 -9 15 -25 15 -14 0 -25 3 -25 8 0 4 43 9 95
10 90 3 95 2 95 -17 0 -11 5 -23 12 -27 7 -4 8 -3 4 4 -5 9 6 12 38 12 25 0
46 -4 46 -8 0 -5 7 -9 15 -9 8 0 15 4 15 9 0 5 4 7 9 3 10 -6 41 21 41 36 0 5
-27 9 -61 9 -50 0 -60 -3 -55 -15 4 -12 -2 -15 -27 -14 -23 1 -26 3 -9 6 38 7
24 22 -25 26 -27 2 1 4 61 5 92 2 107 4 97 16 -9 11 -9 15 1 19 11 4 10 6 0 6
-7 1 -10 6 -7 11 3 6 -4 11 -17 11 -17 1 -18 3 -5 6 9 2 17 9 17 14 0 5 -91 9
-217 9 -145 0 -213 -4 -203 -10z"/>
<path d="M6924 3933 c4 -4 25 -6 46 -4 25 1 40 -2 40 -9 0 -8 -12 -10 -35 -7
-19 3 -38 1 -41 -4 -3 -5 20 -9 50 -9 31 0 56 -4 56 -8 0 -5 -23 -8 -50 -6
-28 1 -53 -2 -56 -7 -3 -5 114 -9 268 -9 159 0 267 4 259 9 -7 5 -10 14 -7 20
5 7 -9 12 -41 13 l-48 1 43 4 c23 2 42 8 42 13 0 4 -120 9 -267 9 -147 1 -264
-2 -259 -6z"/>
<path d="M6940 3819 c0 -4 -12 -10 -27 -12 -26 -4 -26 -4 5 -6 17 0 32 2 32 7
0 4 17 6 37 5 63 -3 69 -5 38 -13 -16 -4 -22 -8 -12 -9 9 0 17 -8 17 -16 0
-13 22 -15 135 -15 74 0 135 -4 135 -8 0 -5 -59 -8 -130 -7 -72 0 -136 -3
-143 -7 -6 -4 68 -8 166 -8 119 0 177 -4 177 -11 0 -6 -19 -9 -53 -6 -29 2
-61 0 -72 -4 -12 -4 24 -8 85 -8 63 0 100 3 91 8 -7 5 -10 14 -7 20 5 7 -2 11
-16 12 -17 1 -18 3 -5 6 33 9 17 23 -25 23 -27 0 -38 3 -30 9 7 4 24 6 38 3
14 -2 24 0 24 7 0 8 -52 11 -170 11 -146 0 -170 2 -170 15 0 13 -12 15 -60 14
-33 -1 -60 -6 -60 -10z"/>
<path d="M3119 4573 c0 -5 -2 -16 -4 -25 -2 -10 1 -18 6 -18 5 0 9 7 9 16 0
14 7 15 38 10 20 -3 66 -6 101 -6 51 0 62 -3 57 -15 -3 -8 3 -19 12 -25 16
-11 16 -11 0 -6 -10 3 -20 1 -23 -4 -4 -6 24 -10 69 -10 42 0 76 -4 76 -10 0
-5 -25 -7 -60 -4 -50 4 -60 2 -60 -11 0 -9 -4 -14 -8 -11 -4 2 -14 1 -22 -5
-11 -6 -6 -9 18 -9 17 0 32 -4 32 -9 0 -4 -11 -6 -25 -3 -18 3 -25 0 -25 -11
0 -8 -6 -18 -12 -20 -7 -3 19 -5 57 -5 52 0 62 2 40 8 -20 5 1 8 68 9 57 1 97
5 97 11 0 6 21 10 46 10 25 0 43 -4 40 -9 -3 -5 -22 -7 -41 -4 -26 3 -35 1
-35 -9 0 -10 -12 -14 -45 -13 -25 1 -48 -2 -51 -6 -2 -4 43 -9 101 -11 58 -2
105 0 105 4 0 4 -12 9 -27 11 -16 2 18 5 75 6 56 0 102 -3 102 -8 0 -5 -31 -7
-70 -6 -53 2 -70 0 -70 -10 0 -11 -18 -13 -84 -9 -65 4 -85 2 -89 -9 -3 -9
-18 -14 -41 -12 -20 1 -36 -2 -36 -7 0 -4 48 -7 108 -6 89 1 98 2 52 8 -45 6
-35 7 57 8 78 2 113 6 116 15 3 6 6 2 6 -11 1 -13 -3 -21 -8 -17 -5 3 -12 1
-16 -5 -4 -6 15 -10 52 -9 32 0 52 3 46 6 -16 6 -17 40 -2 45 24 8 -4 37 -39
41 l-37 4 38 1 c22 1 37 7 37 15 0 8 4 7 10 -3 8 -12 10 -11 10 7 0 12 -6 24
-12 26 -9 4 -9 6 -1 6 6 1 9 10 5 23 -5 21 -6 21 -13 2 -7 -16 -8 -17 -8 -1
-1 20 -37 24 -44 5 -3 -8 -6 -5 -6 6 -1 12 -6 16 -17 12 -9 -3 -19 -6 -22 -7
-4 0 2 -4 13 -9 13 -6 -7 -9 -63 -9 -46 -1 -81 -4 -79 -8 3 -5 1 -17 -4 -28
-6 -17 -8 -17 -8 -2 -1 14 -11 17 -71 17 -38 0 -70 3 -70 8 0 4 21 6 48 4 30
-2 42 0 34 6 -7 5 -43 10 -80 11 -37 1 -69 5 -72 8 -3 3 73 2 169 -2 134 -6
172 -5 166 4 -4 7 -19 11 -33 10 -15 -1 -35 1 -44 6 -10 4 -52 5 -93 3 -42 -3
-78 0 -82 5 -3 5 43 8 108 7 147 -2 148 -2 128 10 -32 19 -598 40 -600 23z"/>
<path d="M5236 4478 c2 -24 1 -35 -2 -25 -4 13 -17 17 -52 17 -26 1 -89 3
-139 6 -60 4 -93 2 -93 -4 0 -6 6 -13 13 -15 6 -3 -8 -5 -33 -5 -28 1 -34 3
-17 5 15 2 27 9 27 14 0 5 -52 9 -117 9 -65 0 -128 3 -140 6 -14 4 -23 2 -23
-5 0 -6 16 -11 37 -11 42 0 41 -7 -2 -12 -16 -1 -33 -10 -37 -18 -5 -12 -7
-12 -7 3 -1 13 -10 17 -38 18 l-38 2 40 6 c64 10 28 19 -80 20 -55 1 -113 4
-128 6 -35 7 -59 -5 -31 -16 11 -4 -16 -7 -61 -6 -66 1 -70 1 -22 4 105 7 58
22 -78 25 -119 3 -135 1 -135 -13 0 -12 -7 -15 -24 -12 -17 4 -25 0 -29 -14
-4 -15 -5 -14 -6 5 -1 14 5 22 15 22 8 0 12 5 9 10 -3 6 -31 10 -62 10 -44 0
-54 -3 -50 -14 3 -8 1 -17 -6 -20 -7 -2 11 -5 38 -7 28 -1 39 -3 25 -6 -63
-10 -74 -14 -59 -24 12 -7 12 -9 -1 -9 -13 0 -13 -1 0 -10 10 -6 11 -10 3 -10
-7 0 -13 -4 -13 -10 0 -6 40 -10 100 -10 55 0 100 -3 100 -8 0 -4 -45 -6 -99
-4 -97 4 -99 3 -94 -17 4 -17 13 -21 49 -21 24 0 44 -3 44 -8 0 -4 -26 -7 -57
-5 -32 1 -53 0 -46 -3 7 -3 9 -12 6 -20 -4 -11 8 -14 63 -13 61 2 64 3 29 9
-28 5 -7 8 72 9 61 0 114 -3 117 -7 3 -5 -16 -8 -42 -7 -34 1 -49 -3 -54 -14
-6 -14 -7 -14 -7 2 -1 11 -9 17 -23 16 -17 -1 -19 -2 -5 -6 42 -11 10 -20 -68
-18 -64 2 -85 -1 -85 -10 0 -8 -6 -16 -12 -18 -7 -3 13 -6 45 -6 31 -1 57 -5
57 -10 0 -5 -22 -7 -50 -6 -49 3 -50 2 -50 -27 0 -17 -4 -27 -10 -23 -5 3 -10
1 -10 -4 0 -7 30 -11 80 -11 45 0 80 -4 80 -10 0 -5 -26 -8 -60 -6 -33 1 -60
-1 -60 -6 0 -4 36 -8 81 -8 52 0 78 4 74 10 -4 6 -11 8 -16 5 -5 -4 -9 -1 -9
6 0 6 8 9 20 6 11 -3 23 -1 26 4 3 5 -23 10 -58 10 -35 1 -51 4 -35 6 46 7 30
19 -29 21 -31 0 -59 4 -62 7 -3 3 58 5 136 5 84 0 142 -4 142 -10 0 -5 -31 -8
-75 -6 -41 2 -75 0 -75 -5 0 -5 54 -9 120 -9 66 0 120 -4 120 -8 0 -5 -38 -7
-85 -6 -63 2 -85 -1 -85 -11 0 -9 34 -11 155 -8 91 3 155 1 155 -4 0 -5 -42
-8 -95 -7 -76 3 -95 0 -95 -11 0 -18 23 -32 28 -17 2 8 32 12 88 12 76 0 84 2
84 19 0 14 -8 21 -27 24 -23 3 -21 4 10 6 66 2 39 16 -35 18 -40 1 -67 0 -60
-3 19 -9 14 -23 -8 -21 -12 1 -18 7 -16 14 3 8 -9 13 -37 16 l-42 4 43 1 c79
4 42 19 -50 20 -122 3 -127 12 -5 12 67 0 97 4 100 13 4 10 6 10 6 0 1 -7 13
-13 27 -13 14 0 23 -4 19 -9 -3 -6 -14 -8 -25 -6 -11 2 -20 0 -20 -6 0 -5 33
-9 73 -8 51 1 65 3 47 9 -25 8 -25 8 -2 9 48 2 10 19 -44 20 -85 1 -79 11 7
12 41 0 68 3 62 6 -7 2 -13 12 -14 21 0 14 -2 13 -9 -3 l-9 -20 0 20 c-1 16
-3 17 -10 6 -11 -17 -41 -24 -41 -10 0 5 8 9 18 10 14 0 14 2 -3 9 -15 6 -8 9
30 10 28 1 44 4 38 7 -7 2 -13 9 -13 14 0 6 5 7 10 4 6 -3 10 -1 10 4 0 18
-28 12 -33 -6 -4 -16 -5 -16 -6 -1 -1 12 -12 18 -38 21 -29 3 -24 4 18 5 47 2
57 5 55 20 -1 12 -13 19 -41 23 l-40 6 48 1 c39 2 47 5 47 21 0 12 -8 21 -22
24 l-23 4 23 2 c13 0 20 6 17 11 -4 6 8 10 30 10 22 0 34 -4 30 -10 -3 -5 0
-10 7 -10 9 0 9 -3 2 -8 -17 -11 -13 -42 5 -43 9 -1 27 -2 41 -4 60 -6 146 -7
300 -4 144 2 154 4 80 9 l-85 6 95 3 c52 1 89 5 83 8 -19 7 6 28 40 35 21 4
27 2 25 -11 -2 -9 -7 -19 -13 -23 -6 -5 -5 -8 3 -8 7 0 11 -4 8 -9 -3 -4 26
-11 65 -14 60 -5 73 -10 90 -31 11 -15 30 -27 42 -27 17 -1 18 -2 5 -6 -34 -9
-18 -23 25 -23 31 0 49 6 62 20 17 19 16 19 -51 23 l-69 3 72 2 c67 2 133 24
133 45 0 4 35 8 78 9 l77 2 -100 6 -100 6 98 2 c71 1 96 5 95 15 -2 6 -7 15
-13 19 -6 5 -5 8 3 8 6 0 12 4 12 8 0 5 -25 9 -55 10 -30 0 -55 -4 -55 -9 0
-5 -11 -9 -25 -9 -14 0 -24 5 -22 12 1 9 -32 13 -118 16 -92 3 -123 7 -132 18
-9 12 -11 7 -7 -28z"/>
<path d="M3661 4329 c-1 -13 -11 -16 -51 -15 -27 1 -50 -2 -50 -6 0 -5 43 -8
95 -8 52 0 95 -4 95 -9 0 -5 -22 -8 -50 -6 -38 3 -50 0 -50 -11 0 -8 -9 -14
-21 -14 -15 0 -19 5 -15 15 3 8 1 15 -4 15 -6 0 -10 -6 -10 -13 0 -9 -17 -13
-60 -12 -33 1 -60 -2 -60 -7 0 -4 43 -8 95 -8 52 0 95 -4 95 -8 0 -5 -22 -8
-50 -6 -27 1 -50 -2 -50 -7 0 -5 48 -9 108 -8 69 0 100 3 87 9 -15 6 -7 9 30
9 82 1 39 20 -55 24 l-85 3 88 2 c80 2 87 4 87 22 0 18 -7 20 -71 20 -59 0
-70 3 -65 15 3 8 1 15 -4 15 -6 0 -10 -8 -11 -17 0 -15 -2 -15 -9 2 -7 15 -9
16 -9 4z"/>
<path d="M3490 4307 c0 -11 -16 -13 -65 -12 -54 2 -65 0 -66 -14 0 -12 -2 -11
-9 4 -7 17 -9 17 -9 3 -1 -10 -6 -18 -12 -18 -6 0 -9 7 -5 15 3 8 1 15 -4 15
-6 0 -10 -7 -10 -16 0 -8 -4 -13 -8 -10 -4 2 -14 1 -22 -5 -10 -6 13 -9 68 -9
45 0 82 -4 82 -9 0 -4 -34 -7 -75 -6 -41 1 -75 -2 -75 -7 0 -4 50 -8 110 -8
73 0 110 -4 110 -11 0 -7 -14 -9 -40 -5 -23 3 -40 1 -40 -4 0 -6 46 -10 110
-10 72 0 110 -4 110 -11 0 -6 -14 -9 -34 -6 -19 3 -39 0 -45 -6 -6 -6 -11 -7
-11 -1 0 5 -25 9 -55 10 -39 0 -52 -3 -45 -10 7 -7 64 -10 155 -8 104 2 145 0
145 -9 0 -6 -7 -9 -15 -5 -8 3 -15 1 -15 -4 0 -18 87 -12 94 6 9 23 8 24 -14
24 -11 0 -20 -7 -20 -15 0 -8 -5 -15 -11 -15 -6 0 -9 7 -5 15 4 12 -5 15 -55
15 -50 0 -60 3 -55 15 4 12 -6 15 -60 15 -55 0 -65 3 -60 15 4 12 -4 15 -44
15 -30 0 -50 4 -50 11 0 6 7 9 15 5 8 -3 15 -1 15 4 0 5 -24 11 -52 13 -33 2
-14 5 52 7 58 1 93 5 78 7 -16 2 -28 8 -28 13 0 5 7 7 15 4 8 -4 15 -1 15 5 0
6 -13 11 -30 11 -19 0 -30 -5 -30 -13z"/>
<path d="M4573 4240 c-2 -18 4 -20 73 -20 41 0 74 -3 74 -8 0 -4 -16 -7 -35
-6 -24 1 -35 -2 -35 -12 0 -8 -9 -14 -22 -13 -17 1 -19 2 -5 6 30 8 19 23 -17
23 l-34 0 1 -60 1 -60 36 1 c28 0 31 2 15 9 -14 6 -15 9 -4 9 8 1 19 -3 25 -8
5 -5 20 -11 34 -13 19 -2 26 2 28 19 2 14 -3 23 -15 26 -10 3 5 5 32 6 36 1
46 4 35 11 -10 6 -11 10 -2 10 6 0 12 5 12 10 0 6 -21 11 -47 12 l-48 1 50 6
c31 4 45 9 37 14 -7 5 -9 13 -6 19 5 7 1 9 -9 5 -10 -3 -17 -2 -17 3 0 6 8 10
17 10 9 0 13 3 9 7 -4 5 -29 8 -54 8 -33 1 -49 -3 -54 -14 -6 -14 -7 -13 -7 2
-1 27 -66 24 -68 -3z"/>
<path d="M5481 4256 c3 -3 23 -6 47 -7 52 -4 45 -13 -11 -14 -32 0 -43 -4 -45
-17 -3 -16 5 -18 60 -18 36 0 57 -4 50 -8 -7 -5 -34 -8 -61 -6 l-48 1 -1 -33
-1 -34 81 0 c45 0 78 -3 74 -7 -3 -4 -33 -6 -66 -5 -56 1 -60 0 -59 -21 0 -21
1 -21 9 -2 l9 20 1 -20 1 -20 9 20 c8 19 9 19 9 1 1 -15 4 -16 16 -6 12 10 15
10 15 -1 0 -11 2 -11 10 1 5 8 10 11 10 7 0 -4 -7 -19 -16 -32 l-16 -25 36 0
c51 0 90 23 110 64 16 34 21 66 11 66 -4 0 -20 -7 -37 -16 -28 -15 -30 -15
-25 0 5 14 -4 16 -66 18 l-72 2 75 6 c41 4 69 7 61 8 -10 2 -11 5 -2 16 10 12
6 15 -26 19 l-38 4 37 1 c30 2 36 6 35 22 -1 22 -22 27 -30 8 -4 -10 -6 -10
-6 0 -1 8 -22 12 -73 12 -39 0 -69 -2 -67 -4z"/>
<path d="M5016 3954 c-9 -8 -16 -11 -16 -5 0 6 -5 11 -11 11 -5 0 -7 -4 -4
-10 3 -5 1 -10 -4 -10 -6 0 -11 6 -11 13 0 8 -3 8 -8 1 -4 -6 -62 -10 -164 -8
-138 1 -158 0 -161 -15 -4 -14 -5 -14 -6 2 0 9 -7 17 -13 18 -58 5 -100 4
-111 -3 -8 -5 -4 -8 11 -8 12 0 22 -5 22 -11 0 -5 -4 -8 -8 -5 -4 2 -14 1 -22
-5 -10 -6 15 -9 73 -9 48 0 87 -4 87 -9 0 -4 -34 -7 -76 -7 -41 1 -78 -2 -80
-6 -3 -4 47 -8 110 -8 64 0 116 -4 116 -9 0 -4 -56 -7 -125 -7 -69 1 -125 -2
-125 -6 0 -13 -48 -9 -53 5 -4 7 -6 6 -6 -4 -1 -18 58 -36 68 -21 9 12 341 16
341 3 0 -6 -46 -9 -126 -7 -69 1 -127 -2 -130 -6 -3 -4 54 -8 125 -8 72 0 131
-4 131 -8 0 -5 -57 -8 -126 -8 -69 1 -131 -2 -137 -6 -6 -4 68 -8 166 -10 97
-2 177 0 177 5 0 4 -11 7 -25 7 -14 0 -25 5 -25 10 0 6 11 8 25 6 14 -3 25 0
25 5 0 5 -16 9 -35 9 -19 0 -35 4 -35 9 0 5 16 7 35 4 20 -3 35 0 35 6 0 5
-28 12 -62 14 -35 2 -3 4 71 5 161 2 166 16 8 18 -221 3 -237 4 -237 12 0 4
82 5 182 4 101 -2 179 0 175 5 -5 4 -66 8 -135 9 -246 3 -272 4 -272 12 0 4
91 6 202 5 124 -1 195 1 183 7 -17 7 -18 9 -2 9 9 1 17 6 17 11 0 15 -16 12
-34 -6z"/>
<path d="M5425 3624 c-11 -8 -19 -18 -17 -22 2 -3 -5 -9 -15 -13 -17 -7 -17
-8 0 -8 25 -1 21 -19 -5 -24 -20 -4 -19 -4 5 -6 36 -1 35 -20 -3 -27 -16 -4
-30 -10 -30 -15 0 -5 3 -8 8 -8 4 1 16 1 27 -1 l20 -1 -20 -8 c-11 -5 -23 -7
-27 -4 -10 6 -10 -5 2 -49 24 -84 132 -118 198 -63 61 51 61 189 0 240 -35 29
-110 34 -143 9z"/>
<path d="M6970 2880 c0 -5 -9 -10 -19 -10 -18 0 -20 -7 -18 -96 l2 -97 30 -3
c86 -11 135 23 135 94 0 53 -12 78 -48 95 -40 21 -82 29 -82 17z"/>
<path d="M4669 2851 c-33 -34 -39 -83 -14 -131 18 -34 85 -61 108 -42 7 6 24
8 37 5 22 -6 23 -5 17 40 -4 26 -2 49 3 52 6 3 10 26 10 49 0 49 -10 56 -88
56 -35 0 -49 -6 -73 -29z"/>
<path d="M8210 2830 c0 -25 5 -40 13 -40 9 0 9 -2 0 -8 -6 -4 -13 -30 -15 -57
l-3 -50 63 0 c55 0 67 4 83 24 21 25 26 81 8 81 -7 0 -9 -10 -5 -25 6 -23 3
-25 -24 -25 -23 0 -31 5 -36 25 -3 14 -9 25 -13 25 -6 0 -8 9 -12 65 -1 20 -7
25 -30 25 -27 0 -29 -3 -29 -40z"/>
<path d="M7302 2868 c-20 -10 -22 -17 -18 -54 2 -23 9 -51 15 -62 10 -18 8
-21 -15 -24 l-26 -3 20 -25 c17 -21 29 -25 77 -25 46 0 60 4 75 22 17 21 17
25 -1 88 -10 36 -15 65 -11 65 4 0 -2 7 -12 15 -23 17 -71 18 -104 3z"/>
<path d="M4767 2484 c-70 -70 -27 -184 71 -184 63 0 102 40 102 105 0 38 -5
52 -29 76 -40 40 -106 41 -144 3z"/>
<path d="M1044 899 c-42 -46 -15 -159 38 -159 34 0 57 19 67 55 24 90 -51 164
-105 104z"/>
</g>
</svg>
